# xmcd
#
# Track frame offsets: 
#        150
#        12783
#        24010
#        36030
#        51002
#        67718
#        81683
#        95501
#        108533
#        127137
#        144791
#        153428
#        168992
#        187831
#
# Disc length: 2671 seconds
#
# Revision: 2
# Processed by: cddbd v1.5.2PL0 Copyright (c) Steve Scherf et al.
# Submitted via: ExactAudioCopy v0.99pb5
#
DISCID=a70a6d0e
DTITLE=Homesick James and Snooky Pryor - Sad and Lonesome
DYEAR=1900
DGENRE=Blues
TTITLE0=Sad and Lonesome
TTITLE1=Homesick's Cross Roads
TTITLE2=It Seem Like A Dream
TTITLE3=It's All Over Now
TTITLE4=Shake Your Money Maker
TTITLE5=Some Day Baby Blues
TTITLE6=Rock Me
TTITLE7=No More Lovin'
TTITLE8=Push Me Well
TTITLE9=I Believe I Get Married
TTITLE10=Harp Boogie
TTITLE11=Last Fair Deal
TTITLE12=Telephone Blues
TTITLE13=Goin' To The Pawn Shop
EXTD=
EXTT0=
EXTT1=
EXTT2=
EXTT3=
EXTT4=
EXTT5=
EXTT6=
EXTT7=
EXTT8=
EXTT9=
EXTT10=
EXTT11=
EXTT12=
EXTT13=
PLAYORDER=
